<?xml version="1.0" standalone="no"?>
<!DOCTYPE svg PUBLIC "-//W3C//DTD SVG 20010904//EN"
 "http://www.w3.org/TR/2001/REC-SVG-20010904/DTD/svg10.dtd">
<svg version="1.0" xmlns="http://www.w3.org/2000/svg"
 width="286.000000pt" height="286.000000pt" viewBox="0 0 286.000000 286.000000"
 preserveAspectRatio="xMidYMid meet">
<metadata>
Created by potrace 1.14, written by Peter Selinger 2001-2017
</metadata>
<g transform="translate(0.000000,286.000000) scale(0.100000,-0.100000)"
fill="#000000" stroke="none">
<path d="M1327 2800 c-27 -10 -54 -23 -61 -29 -7 -6 -19 -46 -26 -89 -7 -42
-14 -84 -15 -93 -2 -9 -6 -34 -9 -55 -6 -35 -12 -72 -22 -128 -5 -29 -14 -33
-79 -40 -124 -13 -296 -75 -403 -147 l-42 -29 -115 66 c-107 62 -116 65 -150
55 -51 -14 -102 -55 -125 -101 -34 -67 -28 -92 53 -204 40 -56 76 -106 80
-112 4 -6 -7 -51 -23 -99 -17 -49 -33 -109 -36 -134 -3 -25 -8 -49 -10 -53 -2
-3 -4 -49 -5 -102 l-1 -95 -51 -30 c-123 -71 -224 -210 -242 -334 -14 -95 -6
-189 22 -260 l16 -38 33 59 c48 84 59 91 58 35 -2 -75 21 -147 77 -243 19 -32
90 -110 111 -121 15 -8 16 -1 12 72 l-4 80 42 -33 c46 -35 59 -49 54 -58 -2
-3 -7 -34 -10 -68 -6 -57 -4 -69 18 -106 90 -154 315 -277 571 -310 131 -17
347 -23 460 -12 22 3 69 7 105 11 36 3 81 10 100 15 19 5 50 12 67 15 137 23
340 118 427 199 92 86 96 98 96 270 0 154 6 183 16 80 3 -32 7 -60 9 -62 9
-10 114 104 154 169 53 86 56 85 60 -11 1 -30 4 -56 6 -58 9 -10 77 99 91 148
16 53 21 194 10 250 -3 14 -8 37 -12 53 -16 73 90 -23 121 -111 11 -29 23 -52
27 -52 4 0 7 3 6 8 -1 4 2 30 7 57 12 73 12 165 0 205 -38 126 -114 195 -255
234 -31 8 -83 33 -116 54 l-61 40 -6 62 c-7 60 -59 233 -79 257 -6 7 17 58 71
153 45 78 81 149 81 156 0 25 -40 101 -68 127 -34 33 -89 56 -124 52 -15 -2
-71 -36 -124 -75 -85 -64 -98 -70 -112 -57 -47 40 -300 127 -370 127 -11 0
-23 8 -26 18 -3 9 -8 93 -11 187 -5 157 -7 171 -28 193 -52 56 -156 74 -240
42z"/>
</g>
</svg>
